<svg width="20" height="20" viewBox="0 0 20 20" fill="none" xmlns="http://www.w3.org/2000/svg">
<path d="M14.0759 2.06068C15.173 2.06383 16.2242 2.4846 17 3.23109C17.7757 3.97757 18.213 4.98912 18.2162 6.04481V14.0122C18.213 15.0679 17.7757 16.0794 17 16.8259C16.2242 17.5724 15.173 17.9932 14.0759 17.9963H5.79618C4.69911 17.9932 3.6479 17.5724 2.87215 16.8259C2.0964 16.0794 1.65914 15.0679 1.65586 14.0122V6.04481C1.65914 4.98912 2.0964 3.97757 2.87215 3.23109C3.6479 2.4846 4.69911 2.06383 5.79618 2.06068H14.0759ZM14.0759 0.467285H5.79618C2.60821 0.467285 0 2.9771 0 6.04481V14.0122C0 17.0799 2.60821 19.5897 5.79618 19.5897H14.0759C17.2639 19.5897 19.8721 17.0799 19.8721 14.0122V6.04481C19.8721 2.9771 17.2639 0.467285 14.0759 0.467285Z" fill="white"/>
<path d="M15.3177 6.04485C15.072 6.04485 14.8319 5.97475 14.6277 5.84343C14.4234 5.7121 14.2642 5.52544 14.1702 5.30706C14.0762 5.08867 14.0516 4.84837 14.0995 4.61653C14.1475 4.38469 14.2658 4.17174 14.4395 4.00459C14.6131 3.83745 14.8345 3.72362 15.0754 3.67751C15.3163 3.63139 15.566 3.65506 15.793 3.74552C16.0199 3.83598 16.2139 3.98916 16.3504 4.1857C16.4868 4.38224 16.5597 4.61331 16.5597 4.84969C16.56 5.00674 16.5282 5.1623 16.4659 5.30746C16.4036 5.45261 16.3121 5.5845 16.1967 5.69555C16.0813 5.80659 15.9442 5.89462 15.7934 5.95456C15.6425 6.0145 15.4809 6.04518 15.3177 6.04485ZM9.9358 6.84133C10.5909 6.84133 11.2313 7.02826 11.7759 7.37847C12.3206 7.72869 12.7452 8.22646 12.9958 8.80885C13.2465 9.39124 13.3121 10.0321 13.1843 10.6503C13.0565 11.2686 12.7411 11.8365 12.2779 12.2822C11.8146 12.728 11.2245 13.0315 10.582 13.1545C9.93948 13.2775 9.27351 13.2144 8.66829 12.9731C8.06307 12.7319 7.54578 12.3234 7.18184 11.7993C6.81789 11.2751 6.62364 10.6589 6.62364 10.0285C6.62458 9.18352 6.97384 8.37336 7.59478 7.77584C8.21573 7.17832 9.05765 6.84223 9.9358 6.84133ZM9.9358 5.24794C8.95322 5.24794 7.9927 5.52831 7.17571 6.05361C6.35873 6.57891 5.72196 7.32554 5.34594 8.19908C4.96993 9.07263 4.87154 10.0338 5.06323 10.9612C5.25493 11.8885 5.72809 12.7404 6.42288 13.4089C7.11767 14.0775 8.00289 14.5328 8.96659 14.7173C9.93029 14.9018 10.9292 14.8071 11.837 14.4453C12.7448 14.0834 13.5207 13.4707 14.0666 12.6845C14.6125 11.8983 14.9038 10.9741 14.9038 10.0285C14.9038 8.76065 14.3804 7.54468 13.4487 6.64814C12.517 5.75161 11.2534 5.24794 9.9358 5.24794Z" fill="white"/>
</svg>
