<svg width="20" height="20" viewBox="0 0 20 20" fill="none" xmlns="http://www.w3.org/2000/svg">
<path d="M18.4415 0.319336H2.2354C1.34987 0.319336 0.576172 0.956501 0.576172 1.83163V18.0737C0.576172 18.9536 1.34987 19.7377 2.2354 19.7377H18.4367C19.327 19.7377 19.9945 18.9484 19.9945 18.0737V1.83163C19.9997 0.956501 19.327 0.319336 18.4415 0.319336ZM6.59543 16.5055H3.81358V7.85609H6.59543V16.5055ZM5.30073 6.54101H5.28079C4.39049 6.54101 3.81401 5.87828 3.81401 5.04866C3.81401 4.20388 4.40566 3.55674 5.3159 3.55674C6.22613 3.55674 6.78311 4.19911 6.80305 5.04866C6.80262 5.87828 6.22613 6.54101 5.30073 6.54101ZM16.7623 16.5055H13.9805V11.7762C13.9805 10.6431 13.5756 9.86901 12.5692 9.86901C11.8002 9.86901 11.3451 10.3891 11.1427 10.8958C11.0669 11.0779 11.0465 11.3258 11.0465 11.579V16.5055H8.26463V7.85609H11.0465V9.05977C11.4513 8.48328 12.0837 7.65367 13.5553 7.65367C15.3814 7.65367 16.7628 8.85735 16.7628 11.4524L16.7623 16.5055Z" fill="white"/>
</svg>
