<svg width="60" height="43" viewBox="0 0 60 43" fill="none" xmlns="http://www.w3.org/2000/svg">
<g clip-path="url(#clip0_739_1025)">
<path d="M4.35906 33.8508C4.51781 33.8508 4.65441 33.7801 4.76886 33.6386C4.88309 33.4972 4.94028 33.3258 4.94028 33.1243C4.94028 32.9228 4.88309 32.7513 4.76886 32.6099C4.65449 32.4685 4.51789 32.3976 4.35906 32.3976H1.74365V33.8508H4.35906V33.8508ZM1.74365 34.4727V38.2098H0V30.6543H4.35906C5.00221 30.6543 5.5505 30.8955 6.00386 31.3779C6.45721 31.8603 6.68393 32.4425 6.68393 33.1244C6.68393 33.8064 6.45729 34.3876 6.00386 34.868C5.66284 35.2322 5.26961 35.459 4.82409 35.5479L6.68393 38.2099H4.35906L1.74365 34.4728V34.4727Z" fill="white"/>
<path d="M8.03223 36.4662H13.8442V38.2099H8.03803L8.03223 36.4662ZM8.03223 33.5602H12.9782V35.3038H8.03223V33.5602ZM13.8442 30.6543L12.9724 32.3978H8.03223V30.6543H13.8442Z" fill="white"/>
<path d="M15.1914 36.4662H21.0034V38.2099H15.1973L15.1914 36.4662ZM15.1914 33.5602H20.1374V35.3038H15.1914V33.5602ZM21.0034 30.6543L20.1317 32.3978H15.1915V30.6543H21.0035H21.0034Z" fill="white"/>
<path d="M26.7105 33.8508C26.8693 33.8508 27.0059 33.7801 27.1204 33.6386C27.2346 33.4972 27.2918 33.3258 27.2918 33.1243C27.2918 32.9228 27.2346 32.7513 27.1204 32.6099C27.006 32.4685 26.8694 32.3976 26.7105 32.3976H24.0951V33.8508H26.7105V33.8508ZM24.0951 34.4727V38.2098H22.3516V30.6543H26.7106C27.3538 30.6543 27.9021 30.8955 28.3554 31.3779C28.8088 31.8603 29.0355 32.4425 29.0355 33.1244C29.0355 33.8064 28.8089 34.3876 28.3554 34.868C28.0144 35.2322 27.6213 35.459 27.1757 35.5479L29.0355 38.2099H26.7107L24.0953 34.4728L24.0951 34.4727Z" fill="#E57E38"/>
<path d="M32.6387 32.9936C32.2977 33.3907 32.1273 33.8703 32.1273 34.4321C32.1273 34.9938 32.2976 35.4733 32.6387 35.8705C32.9796 36.2677 33.3903 36.4662 33.8709 36.4662C34.3512 36.4662 34.7619 36.2677 35.103 35.8705C35.444 35.4733 35.6144 34.9938 35.6144 34.4321C35.6144 33.8703 35.444 33.3907 35.103 32.9936C34.762 32.5964 34.3513 32.3978 33.8709 32.3978C33.3903 32.3978 32.9796 32.5964 32.6387 32.9936ZM36.3381 31.7614C37.0181 32.4995 37.358 33.3898 37.358 34.4321C37.358 35.4743 37.0181 36.3645 36.3381 37.1027C35.658 37.8408 34.8356 38.2098 33.8709 38.2098C32.9062 38.2098 32.0837 37.8408 31.4037 37.1027C30.7237 36.3645 30.3838 35.4743 30.3838 34.4321C30.3838 33.3898 30.7237 32.4995 31.4037 31.7614C32.0837 31.0233 32.9062 30.6543 33.8709 30.6543C34.8357 30.6543 35.6581 31.0233 36.3381 31.7614Z" fill="#E57E38"/>
<path d="M38.7061 34.4321V30.6543H40.4497V34.4321C40.4497 34.9938 40.6202 35.4735 40.9612 35.8705C41.302 36.2677 41.7128 36.4662 42.1934 36.4662C42.6737 36.4662 43.0844 36.2677 43.4254 35.8705C43.7664 35.4734 43.9369 34.9938 43.9369 34.4321V30.6543H45.6804V34.4321C45.6804 35.4743 45.3405 36.3646 44.6606 37.1027C43.9805 37.8408 43.1581 38.2098 42.1934 38.2098C41.2285 38.2098 40.4062 37.8408 39.7262 37.1027C39.0461 36.3646 38.7061 35.4743 38.7061 34.4321H38.7061Z" fill="#E57E38"/>
<path d="M49.0624 32.3978H47.0283V30.6543H52.8403L51.9685 32.3978H50.8061V38.2099H49.0684L49.0624 32.3978Z" fill="#E57E38"/>
<path d="M54.1875 36.4662H59.9996V38.2099H54.1934L54.1876 36.4662H54.1875ZM54.1875 33.5602H59.1336V35.3038H54.1875V33.5602ZM59.9996 30.6543L59.1278 32.3978H54.1876V30.6543H59.9997H59.9996Z" fill="#E57E38"/>
<path d="M11.156 41.4267C11.156 41.045 10.8758 40.7701 10.4995 40.7701C10.1231 40.7701 9.84284 41.045 9.84284 41.4267C9.84284 41.8085 10.1231 42.0833 10.4995 42.0833C10.8758 42.0833 11.156 41.8085 11.156 41.4267ZM9.49316 41.4267C9.49316 40.8743 9.9203 40.4658 10.4995 40.4658C11.0787 40.4658 11.5058 40.8715 11.5058 41.4267C11.5058 41.9819 11.0787 42.3877 10.4995 42.3877C9.92022 42.3877 9.49316 41.9793 9.49316 41.4267Z" fill="white"/>
<path d="M13.7481 40.4924V42.3609H13.4626L12.4323 41.0957V42.3609H12.0879V40.4924H12.3735L13.4038 41.7577V40.4924H13.7481Z" fill="white"/>
<path d="M15.7941 40.7861H15.1748V40.4924H16.7604V40.7861H16.1411V42.3609H15.7941V40.7861Z" fill="white"/>
<path d="M18.8955 40.4924V42.3609H18.5486V41.5602H17.5823V42.3609H17.2354V40.4924H17.5823V41.2639H18.5486V40.4924H18.8955Z" fill="white"/>
<path d="M21.0126 42.07V42.3609H19.6113V40.4924H20.9753V40.7835H19.9583V41.2692H20.8605V41.5548H19.9583V42.07H21.0126Z" fill="white"/>
<path d="M23.3172 40.7861H22.9114V41.5308H23.3172C23.6215 41.5308 23.779 41.392 23.779 41.1571C23.779 40.9222 23.6215 40.7861 23.3172 40.7861ZM23.7869 42.3609L23.4052 41.8138C23.3812 41.8163 23.3572 41.8163 23.3331 41.8163H22.9114V42.3609H22.5645V40.4924H23.3331C23.8243 40.4924 24.1286 40.7433 24.1286 41.1571C24.1286 41.4401 23.9844 41.6482 23.7307 41.747L24.1606 42.3609H23.7869H23.7869Z" fill="white"/>
<path d="M26.2587 41.4267C26.2587 41.045 25.9784 40.7701 25.602 40.7701C25.2257 40.7701 24.9454 41.045 24.9454 41.4267C24.9454 41.8085 25.2257 42.0833 25.602 42.0833C25.9783 42.0833 26.2587 41.8085 26.2587 41.4267ZM24.5957 41.4267C24.5957 40.8743 25.0228 40.4658 25.602 40.4658C26.1812 40.4658 26.6083 40.8715 26.6083 41.4267C26.6083 41.9819 26.1812 42.3877 25.602 42.3877C25.0228 42.3877 24.5957 41.9793 24.5957 41.4267Z" fill="white"/>
<path d="M28.2617 41.6561L27.9094 40.8394L27.5597 41.6561H28.2617H28.2617ZM28.3765 41.9285H27.4423L27.2581 42.3609H26.9004L27.7413 40.4924H28.0829L28.9264 42.3609H28.5633L28.3765 41.9285Z" fill="white"/>
<path d="M30.1787 42.0673C30.595 42.0673 30.8647 41.8138 30.8647 41.4267C30.8647 41.0397 30.5949 40.7861 30.1787 40.7861H29.7249V42.0674H30.1787V42.0673ZM29.3779 40.4924H30.1947C30.8006 40.4924 31.2144 40.8662 31.2144 41.4267C31.2144 41.9872 30.8005 42.361 30.1947 42.361H29.3779V40.4925V40.4924Z" fill="white"/>
<path d="M33.1262 40.7861H32.5068V40.4924H34.0924V40.7861H33.4731V42.3609H33.1262V40.7861Z" fill="white"/>
<path d="M36.0701 41.4267C36.0701 41.045 35.7898 40.7701 35.4135 40.7701C35.0371 40.7701 34.7568 41.045 34.7568 41.4267C34.7568 41.8085 35.037 42.0833 35.4135 42.0833C35.7898 42.0833 36.0701 41.8085 36.0701 41.4267ZM34.4072 41.4267C34.4072 40.8743 34.8344 40.4658 35.4135 40.4658C35.9927 40.4658 36.4199 40.8715 36.4199 41.4267C36.4199 41.9819 35.9927 42.3877 35.4135 42.3877C34.8343 42.3877 34.4072 41.9793 34.4072 41.4267Z" fill="white"/>
<path d="M37.7959 42.1634L37.916 41.8939C38.0655 42.0139 38.3031 42.0993 38.5326 42.0993C38.8235 42.0993 38.9463 41.9953 38.9463 41.8565C38.9463 41.4534 37.8359 41.7175 37.8359 41.0236C37.8359 40.7221 38.0762 40.4658 38.5887 40.4658C38.8129 40.4658 39.0478 40.5244 39.2107 40.6312L39.1012 40.9008C38.9329 40.8019 38.7489 40.754 38.586 40.754C38.2977 40.754 38.1803 40.8661 38.1803 41.0076C38.1803 41.4054 39.288 41.1464 39.288 41.8324C39.288 42.1314 39.0451 42.3877 38.5326 42.3877C38.2417 42.3877 37.9507 42.297 37.7959 42.1634Z" fill="white"/>
<path d="M39.8301 41.5467V40.4924H40.177V41.5336C40.177 41.9179 40.3505 42.0832 40.6522 42.0832C40.9536 42.0832 41.1245 41.9179 41.1245 41.5336V40.4924H41.4662V41.5467C41.4662 42.0913 41.1594 42.3877 40.6495 42.3877C40.137 42.3877 39.8301 42.0913 39.8301 41.5467Z" fill="white"/>
<path d="M42.0322 41.4267C42.0322 40.8688 42.4594 40.4658 43.0332 40.4658C43.3375 40.4658 43.599 40.5752 43.7726 40.7781L43.5484 40.989C43.4123 40.8422 43.2441 40.7701 43.0492 40.7701C42.662 40.7701 42.3818 41.0423 42.3818 41.4267C42.3818 41.811 42.662 42.0833 43.0492 42.0833C43.2441 42.0833 43.4123 42.0112 43.5484 41.8619L43.7726 42.0754C43.5991 42.2783 43.3375 42.3877 43.0306 42.3877C42.4594 42.3877 42.0323 41.9846 42.0323 41.4267H42.0322Z" fill="white"/>
<path d="M44.1465 41.4267C44.1465 40.8688 44.5736 40.4658 45.1475 40.4658C45.4518 40.4658 45.7133 40.5752 45.8867 40.7781L45.6626 40.989C45.5265 40.8422 45.3583 40.7701 45.1634 40.7701C44.7763 40.7701 44.4961 41.0423 44.4961 41.4267C44.4961 41.811 44.7763 42.0833 45.1634 42.0833C45.3583 42.0833 45.5265 42.0112 45.6626 41.8619L45.8867 42.0754C45.7133 42.2783 45.4517 42.3877 45.1447 42.3877C44.5735 42.3877 44.1465 41.9846 44.1465 41.4267Z" fill="white"/>
<path d="M47.8359 42.07V42.3609H46.4346V40.4924H47.7985V40.7835H46.7815V41.2692H47.6837V41.5548H46.7815V42.07H47.8359Z" fill="white"/>
<path d="M48.2803 42.1634L48.4004 41.8939C48.5497 42.0139 48.7874 42.0993 49.0169 42.0993C49.3078 42.0993 49.4307 41.9953 49.4307 41.8565C49.4307 41.4534 48.3203 41.7175 48.3203 41.0236C48.3203 40.7221 48.5606 40.4658 49.0731 40.4658C49.2972 40.4658 49.5322 40.5244 49.695 40.6312L49.5856 40.9008C49.4174 40.8019 49.2332 40.754 49.0704 40.754C48.7821 40.754 48.6648 40.8661 48.6648 41.0076C48.6648 41.4054 49.7725 41.1464 49.7725 41.8324C49.7725 42.1314 49.5296 42.3877 49.0172 42.3877C48.7262 42.3877 48.4352 42.297 48.2804 42.1634H48.2803Z" fill="white"/>
<path d="M50.1729 42.1634L50.293 41.8939C50.4424 42.0139 50.68 42.0993 50.9095 42.0993C51.2004 42.0993 51.3232 41.9953 51.3232 41.8565C51.3232 41.4534 50.2129 41.7175 50.2129 41.0236C50.2129 40.7221 50.4531 40.4658 50.9656 40.4658C51.1898 40.4658 51.4246 40.5244 51.5876 40.6312L51.4782 40.9008C51.31 40.8019 51.1258 40.754 50.963 40.754C50.6747 40.754 50.5573 40.8661 50.5573 41.0076C50.5573 41.4054 51.665 41.1464 51.665 41.8324C51.665 42.1314 51.4221 42.3877 50.9097 42.3877C50.6187 42.3877 50.3277 42.297 50.1729 42.1634H50.1729Z" fill="white"/>
<path d="M45.1382 14.8069C45.1382 14.8069 43.9006 16.8311 41.5868 18.003C41.5868 18.003 40.0242 18.8499 36.929 18.8663H32.8922V18.9974C32.8895 19.0876 32.8894 19.1804 32.8868 19.2706C32.8786 19.5766 32.6546 19.7104 32.3924 19.5601C31.1603 18.8553 29.9338 18.1478 28.7099 17.4375C28.4695 17.2982 28.4695 17.014 28.7099 16.8747C29.9392 16.1645 31.1658 15.4542 32.3978 14.7549C32.4879 14.7057 32.66 14.7002 32.7366 14.7549C32.8213 14.8176 32.8787 14.9734 32.8841 15.0881C32.8869 15.1755 32.8895 15.2629 32.8895 15.3504V15.4514H36.6532C36.7215 15.4542 36.8362 15.4569 36.9892 15.4542C38.0737 15.4351 41.0323 15.1373 42.319 12.6049C42.319 12.6049 43.9827 9.44691 42.1497 6.72331C42.1497 6.72331 40.6443 4.4942 38.0164 4.2537H22.833C17.9157 5.22897 18.1998 10.0643 18.1998 10.1517L18.1916 24.5785C18.1916 25.5018 17.443 26.2476 16.5224 26.2476C15.6017 26.2476 14.8533 25.5018 14.8533 24.5785V10.2172C14.8533 10.2172 14.5008 6.71231 16.3831 4.23998C16.3831 4.23998 18.697 0.937199 23.1061 0.68042H38.1311C38.1311 0.68042 42.7916 0.762321 45.2339 4.7781C45.2339 4.7781 48.1924 9.63286 45.1382 14.8069Z" fill="white"/>
<path d="M36.9894 15.4542C36.8363 15.457 36.7216 15.4542 36.6533 15.4514H36.9101C36.9375 15.4514 36.9647 15.4514 36.9894 15.4542Z" fill="#F79633"/>
<path d="M39.7861 10.0126C38.5623 10.7256 37.3356 11.4331 36.1036 12.1353C35.8413 12.2855 35.6173 12.1517 35.6092 11.8484C35.6064 11.7555 35.6064 11.6626 35.6037 11.5725V11.466H31.7245C31.7026 11.466 31.6808 11.466 31.6617 11.4632H31.6453C28.8643 11.5452 27.5093 12.8947 27.5093 12.8947C24.7338 15.2331 25.791 18.8391 25.791 18.8391C26.8435 22.6377 30.2326 22.8467 30.2326 22.8467L37.281 22.8439C38.2126 22.8439 38.9666 23.5979 38.9666 24.5322V24.5704C38.9666 25.502 38.2126 26.256 37.281 26.256H31.689C27.133 26.256 25.4643 24.8124 24.0098 23.3249C22.8425 22.0916 22.2965 20.1759 22.2396 19.257C22.1141 17.2331 22.1194 13.2689 22.2396 11.19C22.4035 8.35985 25.3074 8.04845 25.3074 8.04845H32.0496L32.0523 8.05116H35.6064V7.92548C35.6064 7.83816 35.6092 7.75068 35.6118 7.6632C35.6173 7.54853 35.6747 7.39558 35.7593 7.33266C35.8358 7.27804 36.008 7.28346 36.0981 7.33266C37.3301 8.02923 38.5567 8.73952 39.786 9.44988C40.0264 9.5892 40.0264 9.87604 39.786 10.0126H39.7861Z" fill="#E57E38"/>
</g>
<defs>
<clipPath id="clip0_739_1025">
<rect width="60" height="41.707" fill="white" transform="translate(0 0.680664)"/>
</clipPath>
</defs>
</svg>
