<svg width="20" height="16" viewBox="0 0 20 16" fill="none" xmlns="http://www.w3.org/2000/svg">
<path d="M19.5756 2.18202C18.8566 2.49424 18.0958 2.69993 17.3172 2.7926C18.1354 2.31386 18.7507 1.5533 19.0477 0.653553C18.2742 1.10554 17.4293 1.42268 16.5493 1.59138C16.1787 1.20329 15.733 0.894557 15.2393 0.683941C14.7456 0.473324 14.2143 0.365226 13.6775 0.366218C11.5041 0.366218 9.74533 2.09821 9.74533 4.23327C9.74379 4.53025 9.77785 4.82634 9.84677 5.11523C8.28834 5.04222 6.76231 4.64495 5.36632 3.94883C3.97033 3.25271 2.73512 2.27307 1.73972 1.07258C1.39051 1.66087 1.20583 2.33209 1.20497 3.01609C1.20497 4.35698 1.90506 5.54224 2.96217 6.23664C2.33586 6.22178 1.72238 6.05613 1.17382 5.75375V5.80164C1.17382 7.6773 2.53166 9.23769 4.32879 9.59287C3.99084 9.6829 3.64259 9.72851 3.29284 9.72856C3.04467 9.72899 2.79706 9.70493 2.55362 9.65672C3.05322 11.1932 4.5073 12.3106 6.22975 12.3425C4.83014 13.4204 3.11178 14.003 1.34475 13.9987C1.0311 13.9982 0.717739 13.9796 0.40625 13.9428C2.20385 15.0898 4.29342 15.6966 6.42624 15.6908C13.6691 15.6908 17.6259 9.7964 17.6259 4.68423C17.6259 4.51662 17.6216 4.349 17.6136 4.18538C18.3816 3.63947 19.046 2.96106 19.5756 2.18202Z" fill="white"/>
</svg>
